<?xml version="1.0" encoding="UTF-8" standalone="no"?>
<!-- Created with Inkscape (http://www.inkscape.org/) -->

<svg
   xmlns:dc="http://purl.org/dc/elements/1.1/"
   xmlns:cc="http://creativecommons.org/ns#"
   xmlns:rdf="http://www.w3.org/1999/02/22-rdf-syntax-ns#"
   xmlns:svg="http://www.w3.org/2000/svg"
   xmlns="http://www.w3.org/2000/svg"
   xmlns:xlink="http://www.w3.org/1999/xlink"
   xmlns:sodipodi="http://sodipodi.sourceforge.net/DTD/sodipodi-0.dtd"
   xmlns:inkscape="http://www.inkscape.org/namespaces/inkscape"
   width="884.94147"
   height="884.94147"
   id="svg3940"
   version="1.1"
   inkscape:version="0.48.1 "
   sodipodi:docname="t_bear_black_white_line_art_coloring_book_colouring.svg"
   inkscape:export-filename="D:\P.png"
   inkscape:export-xdpi="90"
   inkscape:export-ydpi="90">
  <defs
     id="defs3942">
    <linearGradient
       inkscape:collect="always"
       id="linearGradient4049">
      <stop
         style="stop-color:#000000;stop-opacity:1;"
         offset="0"
         id="stop4051" />
      <stop
         style="stop-color:#000000;stop-opacity:0;"
         offset="1"
         id="stop4053" />
    </linearGradient>
    <inkscape:perspective
       sodipodi:type="inkscape:persp3d"
       inkscape:vp_x="0 : 526.18109 : 1"
       inkscape:vp_y="0 : 1000 : 0"
       inkscape:vp_z="744.09448 : 526.18109 : 1"
       inkscape:persp3d-origin="372.04724 : 350.78739 : 1"
       id="perspective3948" />
    <inkscape:perspective
       id="perspective3892"
       inkscape:persp3d-origin="0.5 : 0.33333333 : 1"
       inkscape:vp_z="1 : 0.5 : 1"
       inkscape:vp_y="0 : 1000 : 0"
       inkscape:vp_x="0 : 0.5 : 1"
       sodipodi:type="inkscape:persp3d" />
    <linearGradient
       inkscape:collect="always"
       xlink:href="#linearGradient4049"
       id="linearGradient4055"
       x1="397.68323"
       y1="374.74057"
       x2="400.43884"
       y2="754.62964"
       gradientUnits="userSpaceOnUse" />
  </defs>
  <sodipodi:namedview
     id="base"
     pagecolor="#ffffff"
     bordercolor="#666666"
     borderopacity="1.0"
     inkscape:pageopacity="0.0"
     inkscape:pageshadow="2"
     inkscape:zoom="0.69392361"
     inkscape:cx="495.48301"
     inkscape:cy="324.61946"
     inkscape:document-units="px"
     inkscape:current-layer="layer1"
     showgrid="false"
     inkscape:snap-global="false"
     inkscape:window-width="602"
     inkscape:window-height="618"
     inkscape:window-x="1120"
     inkscape:window-y="77"
     inkscape:window-maximized="0" />
  <metadata
     id="metadata3945">
    <rdf:RDF>
      <cc:Work
         rdf:about="">
        <dc:format>image/svg+xml</dc:format>
        <dc:type
           rdf:resource="http://purl.org/dc/dcmitype/StillImage" />
        <dc:title />
      </cc:Work>
    </rdf:RDF>
  </metadata>
  <g
     inkscape:label="Layer 1"
     inkscape:groupmode="layer"
     id="layer1"
     transform="translate(63.45869,-59.153462)">
    <g
       id="g3805"
       style="fill:#ffffff;fill-opacity:1;stroke:#000000;stroke-width:6;stroke-opacity:1"
       transform="matrix(1.6666667,0,0,1.6666667,-1764.2072,-732.28614)">
      <path
         sodipodi:nodetypes="csss"
         id="path2956"
         d="m 1316.695,884.50803 c -5.7143,14.28571 -27.1429,15.71428 -27.1429,28.57143 0,12.85714 65.7143,11.42857 70,1.42857 2.1015,-4.90361 -3.6395,-17.57865 3.2812,-32.71057"
         style="fill:#ffffff;fill-opacity:1;stroke:#000000;stroke-width:6;stroke-linecap:round;stroke-linejoin:miter;stroke-opacity:1"
         inkscape:connector-curvature="0" />
      <g
         id="g3798"
         style="fill:#ffffff;fill-opacity:1;stroke:#000000;stroke-width:6;stroke-opacity:1">
        <g
           id="g3794"
           style="fill:#ffffff;fill-opacity:1;stroke:#000000;stroke-width:6;stroke-opacity:1">
          <path
             style="color:#000000;fill:#ffffff;fill-opacity:1;stroke:#000000;stroke-width:6;stroke-linejoin:round;stroke-opacity:1;marker:none;visibility:visible;display:inline;overflow:visible;enable-background:accumulate"
             d="m 1311.812,705.19519 c -71.3986,0 -129.2812,35.56439 -129.2812,90 6.0916,32.56019 5.5124,62.73837 4.2812,97.125 -5.7143,14.28571 -27.1562,15.70535 -27.1562,28.5625 0,12.85714 65.7142,11.4375 70,1.4375 4.2857,-10 1,-46.03125 1,-46.03125 l -13.0313,-15.75 c 13.8849,19.45728 55.9822,27.5 92.75,27.5 30.077,0 58.0249,-6.8215 80.2813,-18.78125 1.4909,9.55423 1.5872,22.70381 -0.2813,27.375 -5.7143,14.28571 -23.5937,14.26785 -23.5937,27.125 0,12.85714 65.7142,11.4375 70,1.4375 4.2857,-10 2.1562,-53.9375 2.1562,-53.9375 l 0.5313,-9.125 c 29.9954,-140.3947 -47.6715,-164.43655 -127.6563,-156.9375 z"
             id="path2958"
             sodipodi:nodetypes="cccssccscsssccc"
             inkscape:connector-curvature="0" />
          <path
             id="path3004"
             d="m 1171.2719,926.59819 c 0,0 0.5051,-16.16244 13.132,-17.67767"
             style="fill:#ffffff;fill-opacity:1;stroke:#000000;stroke-width:6;stroke-linecap:round;stroke-linejoin:miter;stroke-opacity:1"
             inkscape:connector-curvature="0" />
        </g>
        <g
           id="g3016"
           style="fill:#ffffff;fill-opacity:1;stroke:#000000;stroke-width:6;stroke-opacity:1">
          <path
             style="fill:#ffffff;fill-opacity:1;stroke:#000000;stroke-width:6;stroke-linecap:round;stroke-linejoin:miter;stroke-opacity:1"
             d="m 1377.8481,929.92451 c 0,0 0.5051,-16.16244 13.132,-17.67767"
             id="path3006"
             inkscape:connector-curvature="0" />
        </g>
      </g>
      <g
         id="g3008"
         style="fill:#ffffff;fill-opacity:1;stroke:#000000;stroke-width:6;stroke-opacity:1">
        <path
           sodipodi:nodetypes="csssc"
           id="path2960"
           d="m 1268.8378,856.65088 c 0,0 4.2857,28.57143 -1.4285,42.85715 -5.7143,14.28571 -27.1429,15.71428 -27.1429,28.57143 0,12.85714 65.7143,11.42857 70,1.42857 4.2857,-10 1.0101,-68.93293 1.0101,-68.93293"
           style="fill:#ffffff;fill-opacity:1;stroke:#000000;stroke-width:6;stroke-linecap:round;stroke-linejoin:miter;stroke-opacity:1"
           inkscape:connector-curvature="0" />
        <path
           id="path3002"
           d="m 1253.8444,933.3375 c 0,0 0.5051,-16.16244 13.132,-17.67767"
           style="fill:#ffffff;fill-opacity:1;stroke:#000000;stroke-width:6;stroke-linecap:round;stroke-linejoin:miter;stroke-opacity:1"
           inkscape:connector-curvature="0" />
      </g>
    </g>
    <g
       id="g3817"
       style="fill:#ffffff;fill-opacity:1;stroke:#000000;stroke-width:6;stroke-opacity:1"
       transform="matrix(1.6666667,0,0,1.6666667,-1764.2072,-732.28614)">
      <g
         id="g2940"
         transform="translate(936.41141,488.91383)"
         style="fill:#ffffff;fill-opacity:1;stroke:#000000;stroke-width:6;stroke-opacity:1">
        <path
           id="path2942"
           d="m 229.20766,91.298978 c -24.65557,0 -44.625,20.000682 -44.625,44.656252 0,20.6682 14.02715,38.04157 33.09375,43.125 12.97782,-20.91653 32.67994,-37.24406 56.09375,-45.90625 -1.43112,-23.36462 -20.83771,-41.875002 -44.5625,-41.875002 z"
           style="color:#000000;fill:#ffffff;fill-opacity:1;stroke:#000000;stroke-width:6;stroke-linecap:butt;stroke-linejoin:miter;stroke-miterlimit:4;stroke-opacity:1;stroke-dasharray:none;stroke-dashoffset:0;marker:none;visibility:visible;display:inline;overflow:visible;enable-background:accumulate"
           inkscape:connector-curvature="0" />
        <path
           id="path2944"
           d="m 424.20766,121.29898 c -19.34271,0 -35.80033,12.32491 -42,29.53125 18.59028,14.94562 32.27115,35.75181 38.28125,59.59375 1.22993,0.10174 2.46256,0.15625 3.71875,0.15625 24.65557,0 44.65625,-19.96943 44.65625,-44.625 0,-24.65557 -20.00068,-44.65625 -44.65625,-44.65625 z"
           style="color:#000000;fill:#ffffff;fill-opacity:1;stroke:#000000;stroke-width:6;stroke-linecap:butt;stroke-linejoin:miter;stroke-miterlimit:4;stroke-opacity:1;stroke-dasharray:none;stroke-dashoffset:0;marker:none;visibility:visible;display:inline;overflow:visible;enable-background:accumulate"
           inkscape:connector-curvature="0" />
      </g>
      <path
         id="path2964"
         d="m 1248.8378,615.21281 c -61.5403,0 -111.4375,49.8972 -111.4375,111.4375 0,42.92039 24.2823,80.16775 59.8438,98.78125 5.4384,12.71722 20.6737,22.47406 39.375,23.71875 16.7589,1.11542 31.9529,-4.8652 40.3437,-14.65625 47.923,-12.46332 83.3125,-56.01969 83.3125,-107.84375 0,-61.5403 -49.8972,-111.4375 -111.4375,-111.4375 z"
         style="color:#000000;fill:#ffffff;fill-opacity:1;stroke:#000000;stroke-width:6;stroke-linecap:butt;stroke-linejoin:miter;stroke-miterlimit:4;stroke-opacity:1;stroke-dasharray:none;stroke-dashoffset:0;marker:none;visibility:visible;display:inline;overflow:visible;enable-background:accumulate"
         inkscape:connector-curvature="0" />
    </g>
    <path
       inkscape:connector-curvature="0"
       style="fill:#a05a2c;fill-opacity:1;stroke:#000000;stroke-width:10;stroke-linecap:round;stroke-linejoin:miter;stroke-opacity:1"
       d="m 523.78833,678.19899 c 0,0 15.56078,33.09405 29.87128,36.46124"
       id="path3841"
       sodipodi:nodetypes="cs" />
    <g
       id="g2873"
       transform="matrix(1.6666667,0,0,1.6666667,-250,-354.90812)">
      <g
         id="g2922"
         transform="matrix(1.4849962,0,0,1.4849962,-45.519854,-20.742277)">
        <path
           transform="translate(-5.0507627,-2.0203051)"
           d="m 245.46707,362.42801 c 0,8.92627 -7.23617,16.16244 -16.16244,16.16244 -8.92627,0 -16.16244,-7.23617 -16.16244,-16.16244 0,-8.92627 7.23617,-16.16244 16.16244,-16.16244 8.92627,0 16.16244,7.23617 16.16244,16.16244 z"
           sodipodi:ry="16.162441"
           sodipodi:rx="16.162441"
           sodipodi:cy="362.42801"
           sodipodi:cx="229.30463"
           id="path2924"
           style="color:#000000;fill:#000000;stroke:#000000;stroke-width:1px;stroke-linecap:butt;stroke-linejoin:miter;stroke-miterlimit:4;stroke-opacity:1;stroke-dasharray:none;stroke-dashoffset:0;marker:none;visibility:visible;display:inline;overflow:visible;enable-background:accumulate"
           sodipodi:type="arc" />
        <path
           sodipodi:type="arc"
           style="color:#000000;fill:#ffffff;stroke:#000000;stroke-width:1px;stroke-linecap:butt;stroke-linejoin:miter;stroke-miterlimit:4;stroke-opacity:1;stroke-dasharray:none;stroke-dashoffset:0;marker:none;visibility:visible;display:inline;overflow:visible;enable-background:accumulate"
           id="path2926"
           sodipodi:cx="229.30463"
           sodipodi:cy="362.42801"
           sodipodi:rx="16.162441"
           sodipodi:ry="16.162441"
           d="m 245.46707,362.42801 c 0,8.92627 -7.23617,16.16244 -16.16244,16.16244 -8.92627,0 -16.16244,-7.23617 -16.16244,-16.16244 0,-8.92627 7.23617,-16.16244 16.16244,-16.16244 8.92627,0 16.16244,7.23617 16.16244,16.16244 z"
           transform="matrix(0.4543793,0,0,0.4543793,123.09305,189.667)" />
      </g>
      <g
         id="g2928"
         transform="matrix(1.4849962,0,0,1.4849962,47.190106,-12.069337)">
        <path
           sodipodi:type="arc"
           style="color:#000000;fill:#000000;stroke:#000000;stroke-width:1px;stroke-linecap:butt;stroke-linejoin:miter;stroke-miterlimit:4;stroke-opacity:1;stroke-dasharray:none;stroke-dashoffset:0;marker:none;visibility:visible;display:inline;overflow:visible;enable-background:accumulate"
           id="path2930"
           sodipodi:cx="229.30463"
           sodipodi:cy="362.42801"
           sodipodi:rx="16.162441"
           sodipodi:ry="16.162441"
           d="m 245.46707,362.42801 c 0,8.92627 -7.23617,16.16244 -16.16244,16.16244 -8.92627,0 -16.16244,-7.23617 -16.16244,-16.16244 0,-8.92627 7.23617,-16.16244 16.16244,-16.16244 8.92627,0 16.16244,7.23617 16.16244,16.16244 z"
           transform="translate(-5.0507627,-2.0203051)" />
        <path
           transform="matrix(0.4543793,0,0,0.4543793,123.09305,189.667)"
           d="m 245.46707,362.42801 c 0,8.92627 -7.23617,16.16244 -16.16244,16.16244 -8.92627,0 -16.16244,-7.23617 -16.16244,-16.16244 0,-8.92627 7.23617,-16.16244 16.16244,-16.16244 8.92627,0 16.16244,7.23617 16.16244,16.16244 z"
           sodipodi:ry="16.162441"
           sodipodi:rx="16.162441"
           sodipodi:cy="362.42801"
           sodipodi:cx="229.30463"
           id="path2932"
           style="color:#000000;fill:#ffffff;stroke:#000000;stroke-width:1px;stroke-linecap:butt;stroke-linejoin:miter;stroke-miterlimit:4;stroke-opacity:1;stroke-dasharray:none;stroke-dashoffset:0;marker:none;visibility:visible;display:inline;overflow:visible;enable-background:accumulate"
           sodipodi:type="arc" />
      </g>
      <g
         id="g2934"
         transform="matrix(0.99408251,0.1086276,-0.1086276,0.99408251,118.73757,101.77387)">
        <path
           sodipodi:nodetypes="csssc"
           id="path2936"
           d="m 284.86301,423.54224 c 0,6.97364 -10.89015,20.84119 -23.44272,20.84119 -12.55256,0 -22.01414,-13.86755 -22.01414,-20.84119 0,-6.97365 10.17587,-12.62691 22.72843,-12.62691 12.55257,0 22.72843,5.65326 22.72843,12.62691 z"
           style="color:#000000;fill:#000000;stroke:#000000;stroke-width:1px;stroke-linecap:butt;stroke-linejoin:miter;stroke-miterlimit:4;stroke-opacity:1;stroke-dashoffset:0;marker:none;visibility:visible;display:inline;overflow:visible;enable-background:accumulate" />
        <path
           d="m 272.85713,418.07648 c 0,1.97244 -2.71827,3.57143 -6.07142,3.57143 -3.35316,0 -6.07143,-1.59899 -6.07143,-3.57143 0,-1.97245 2.71827,-3.57143 6.07143,-3.57143 3.35315,0 6.07142,1.59898 6.07142,3.57143 z"
           sodipodi:ry="3.5714285"
           sodipodi:rx="6.0714288"
           sodipodi:cy="418.07648"
           sodipodi:cx="266.78571"
           id="path2938"
           style="color:#000000;fill:#ffffff;stroke:none;stroke-width:1px;marker:none;visibility:visible;display:inline;overflow:visible;enable-background:accumulate"
           sodipodi:type="arc" />
      </g>
      <g
         transform="matrix(1.4849962,0,0,1.4849962,-45.519854,-20.742277)"
         id="g2966">
        <path
           sodipodi:type="arc"
           style="color:#000000;fill:#000000;stroke:none;stroke-width:1px;stroke-linecap:butt;stroke-linejoin:miter;stroke-miterlimit:4;stroke-opacity:1;stroke-dasharray:none;stroke-dashoffset:0;marker:none;visibility:visible;display:inline;overflow:visible;enable-background:accumulate"
           id="path2968"
           sodipodi:cx="229.30463"
           sodipodi:cy="362.42801"
           sodipodi:rx="16.162441"
           sodipodi:ry="16.162441"
           d="m 245.46707,362.42801 c 0,8.92627 -7.23617,16.16244 -16.16244,16.16244 -8.92627,0 -16.16244,-7.23617 -16.16244,-16.16244 0,-8.92627 7.23617,-16.16244 16.16244,-16.16244 8.92627,0 16.16244,7.23617 16.16244,16.16244 z"
           transform="translate(-5.0507627,-2.0203051)" />
        <path
           transform="matrix(0.4543793,0,0,0.4543793,123.09305,189.667)"
           d="m 245.46707,362.42801 c 0,8.92627 -7.23617,16.16244 -16.16244,16.16244 -8.92627,0 -16.16244,-7.23617 -16.16244,-16.16244 0,-8.92627 7.23617,-16.16244 16.16244,-16.16244 8.92627,0 16.16244,7.23617 16.16244,16.16244 z"
           sodipodi:ry="16.162441"
           sodipodi:rx="16.162441"
           sodipodi:cy="362.42801"
           sodipodi:cx="229.30463"
           id="path2970"
           style="color:#000000;fill:#ffffff;stroke:none;stroke-width:1px;stroke-linecap:butt;stroke-linejoin:miter;stroke-miterlimit:4;stroke-opacity:1;stroke-dasharray:none;stroke-dashoffset:0;marker:none;visibility:visible;display:inline;overflow:visible;enable-background:accumulate"
           sodipodi:type="arc" />
      </g>
      <g
         transform="matrix(1.4849962,0,0,1.4849962,47.190106,-12.069337)"
         id="g2972">
        <path
           transform="translate(-5.0507627,-2.0203051)"
           d="m 245.46707,362.42801 c 0,8.92627 -7.23617,16.16244 -16.16244,16.16244 -8.92627,0 -16.16244,-7.23617 -16.16244,-16.16244 0,-8.92627 7.23617,-16.16244 16.16244,-16.16244 8.92627,0 16.16244,7.23617 16.16244,16.16244 z"
           sodipodi:ry="16.162441"
           sodipodi:rx="16.162441"
           sodipodi:cy="362.42801"
           sodipodi:cx="229.30463"
           id="path2974"
           style="color:#000000;fill:#000000;stroke:none;stroke-width:1px;stroke-linecap:butt;stroke-linejoin:miter;stroke-miterlimit:4;stroke-opacity:1;stroke-dasharray:none;stroke-dashoffset:0;marker:none;visibility:visible;display:inline;overflow:visible;enable-background:accumulate"
           sodipodi:type="arc" />
        <path
           sodipodi:type="arc"
           style="color:#000000;fill:#ffffff;stroke:none;stroke-width:1px;stroke-linecap:butt;stroke-linejoin:miter;stroke-miterlimit:4;stroke-opacity:1;stroke-dasharray:none;stroke-dashoffset:0;marker:none;visibility:visible;display:inline;overflow:visible;enable-background:accumulate"
           id="path2976"
           sodipodi:cx="229.30463"
           sodipodi:cy="362.42801"
           sodipodi:rx="16.162441"
           sodipodi:ry="16.162441"
           d="m 245.46707,362.42801 c 0,8.92627 -7.23617,16.16244 -16.16244,16.16244 -8.92627,0 -16.16244,-7.23617 -16.16244,-16.16244 0,-8.92627 7.23617,-16.16244 16.16244,-16.16244 8.92627,0 16.16244,7.23617 16.16244,16.16244 z"
           transform="matrix(0.4543793,0,0,0.4543793,123.09305,189.667)" />
      </g>
      <g
         id="g3868"
         transform="translate(-445.87446,-317.34054)">
        <g
           id="g2978"
           transform="matrix(0.99408251,0.1086276,-0.1086276,0.99408251,564.61203,419.11441)">
          <path
             sodipodi:nodetypes="csssc"
             id="path2980"
             d="m 284.86301,423.54224 c 0,6.97364 -10.89015,20.84119 -23.44272,20.84119 -12.55256,0 -22.01414,-13.86755 -22.01414,-20.84119 0,-6.97365 10.17587,-12.62691 22.72843,-12.62691 12.55257,0 22.72843,5.65326 22.72843,12.62691 z"
             style="color:#000000;fill:#000000;stroke:none;stroke-width:1px;stroke-linecap:butt;stroke-linejoin:miter;stroke-miterlimit:4;stroke-opacity:1;stroke-dashoffset:0;marker:none;visibility:visible;display:inline;overflow:visible;enable-background:accumulate" />
          <path
             d="m 272.85713,418.07648 c 0,1.97244 -2.71827,3.57143 -6.07142,3.57143 -3.35316,0 -6.07143,-1.59899 -6.07143,-3.57143 0,-1.97245 2.71827,-3.57143 6.07143,-3.57143 3.35315,0 6.07142,1.59898 6.07142,3.57143 z"
             sodipodi:ry="3.5714285"
             sodipodi:rx="6.0714288"
             sodipodi:cy="418.07648"
             sodipodi:cx="266.78571"
             id="path2982"
             style="color:#000000;fill:#ffffff;stroke:none;stroke-width:1px;marker:none;visibility:visible;display:inline;overflow:visible;enable-background:accumulate"
             sodipodi:type="arc" />
        </g>
        <g
           style="stroke:#000000;stroke-width:4;stroke-opacity:1"
           transform="matrix(-0.99645034,-0.08418256,-0.08418256,0.99645034,1074.8385,463.97616)"
           id="g2990">
          <g
             style="stroke:#000000;stroke-width:4;stroke-opacity:1"
             id="g2992">
            <g
               style="stroke:#000000;stroke-width:4;stroke-opacity:1"
               id="g2994"
               transform="matrix(-0.99833308,-0.05771544,-0.05771544,0.99833308,548.02034,15.867958)">
              <path
                 id="path2996"
                 d="m 261.62951,443.2402 -1.01015,28.28427"
                 style="fill:none;stroke:#000000;stroke-width:5;stroke-linecap:round;stroke-linejoin:miter;stroke-miterlimit:4;stroke-opacity:1;stroke-dasharray:none" />
              <path
                 id="path2998"
                 d="m 224.00134,445.51304 c 0,0 -1.01016,33.33503 36.36549,26.26396"
                 style="fill:none;stroke:#000000;stroke-width:5;stroke-linecap:round;stroke-linejoin:miter;stroke-miterlimit:4;stroke-opacity:1;stroke-dasharray:none" />
            </g>
            <path
               style="fill:none;stroke:#000000;stroke-width:5;stroke-linecap:round;stroke-linejoin:miter;stroke-miterlimit:4;stroke-opacity:1;stroke-dasharray:none"
               d="m 224.00134,445.51304 c 0,0 -0.75076,33.22355 36.62489,26.15248"
               id="path3000"
               sodipodi:nodetypes="cc" />
          </g>
        </g>
      </g>
    </g>
  </g>
</svg>
