<?xml version="1.0" encoding="iso-8859-1"?>
<!-- Generator: Adobe Illustrator 16.0.0, SVG Export Plug-In . SVG Version: 6.00 Build 0)  -->
<!DOCTYPE svg PUBLIC "-//W3C//DTD SVG 1.1//EN" "http://www.w3.org/Graphics/SVG/1.1/DTD/svg11.dtd">
<svg xmlns="http://www.w3.org/2000/svg" xmlns:xlink="http://www.w3.org/1999/xlink" version="1.1" id="Capa_1" x="0px" y="0px" width="512px" height="512px" viewBox="0 0 611.999 612" style="enable-background:new 0 0 611.999 612;" xml:space="preserve">
<g>
	<g>
		<path d="M610.551,174.687c-0.672-1.281-67.317-127.815-70.58-134.247c-2.252-4.384-6.08-6.901-10.501-6.901    c-4.42,0-8.78,2.677-10.869,6.702c-1.483,2.9-61.986,125.696-66.44,134.736c-1.812,2.914-2.934,7.201-0.911,11.029    c1.314,2.484,4.291,5.445,11.016,5.445c2.361,0,12.359,0.017,26.029,0.04v306.68c-0.017,4.367-1.603,4.957-2.986,4.967    c-0.156-0.01-0.312-0.018-0.473-0.018h-55.438c0.017-54.77,0.13-430.649-0.007-436.067c-0.306-10.171-8.222-14.797-15.442-14.797    c-0.073,0-0.236,0.003-0.396,0.006H312.828c-0.187-0.013-0.446-0.02-0.762-0.02c-7.544,0-15.184,4.44-15.244,14.332    c-0.05,4.919-0.01,368.937-0.003,436.546h-7.41c-0.04-121.205-0.09-340.508,0-344.809c0.226-5.564-1.946-9.047-3.812-10.986    c-3.905-4.071-9.22-4.507-11.322-4.507c-0.06,0-0.18,0-0.299,0.003H172.604c-6.319,0.063-15.732,4.164-15.765,15.157    c-0.03,3.173-0.014,214.936,0,345.141h-10.933V250.181c0-12.067-9.167-16.447-15.339-16.447H29.283    c-0.14-0.003-0.276-0.007-0.342-0.007c-7.387,0-15.423,4.727-15.603,15.067c-0.176,8.089-0.043,209.448-0.01,254.472    c-7.913,0.982-13.018,6.213-13.204,13.91c-0.259,8.518-0.037,40.906-0.007,44.951c-0.16,1.902-0.169,6.83,3.336,10.949    c2.092,2.453,6.13,5.385,13.49,5.385c0.01,0,0.103,0,0.113,0c2.185-0.01,49.158-0.014,139.612-0.014l397.218,0.014    c8.059,0,12.708-3.146,15.189-5.787c4.67-4.971,4.81-11.207,4.766-12.766l0.044-368.328c9.668-0.017,21.462-0.054,24.849-0.133    c7.16-0.176,10.413-3.233,11.884-5.761C613.508,180.694,611.043,175.602,610.551,174.687z M310.127,66.682    c0.004-0.499,0.1-0.809,0.037-0.735c0.203-0.166,0.994-0.402,1.916-0.409c0.183,0.017,0.365,0.023,0.549,0.023l101.322-0.006    c2.089,0,2.109,0.715,2.146,1.859c0.116,5.335,0.04,317.17,0,435.705H310.124C310.117,435.375,310.077,71.564,310.127,66.682z     M170.142,158.057c0-0.592,0.003-1.819,2.528-1.936l101.603-0.003c0.688,0,1.523,0.229,1.707,0.389    c0,0.003,0.173,0.329,0.136,1.293c-0.117,3.273-0.027,288.085-0.007,345.316H170.142    C170.119,286.031,170.119,160.392,170.142,158.057z M26.639,249.056c0.02-1.177,0.037-2.025,2.195-2.032    c0.13,0.01,0.263,0.014,0.393,0.014l101.247-0.003c1.57,0.08,2.128,0.901,2.128,3.146v252.938H26.629    C26.599,457.796,26.466,257.022,26.639,249.056z M567.227,178.282c-3.672,0.003-6.648,2.98-6.648,6.652l-0.036,375.368    c0,0.023,0,2.072-1.215,3.311c-1.25,1.277-3.651,1.543-5.444,1.543l-397.217-0.014c-90.474,0-137.467,0.004-139.669,0.014    l-0.06,6.652v-6.652c-2.149,0-3.133-0.455-3.353-0.695c-0.183-0.203-0.26-0.822-0.253-0.957c0.06-0.367,0.086-0.742,0.083-1.111    c-0.003-0.359-0.266-36.164,0-44.852c0.01-0.422,0.073-0.652,0.057-0.652c0,0,0,0-0.003,0c0.187-0.162,1.091-0.521,2.588-0.521    c0.263,0,0.456,0.014,0.469,0.014l0,0c0.259,0.029,0.522,0.047,0.785,0.047h2.667h119.267h24.24H282.75h20.714h119.274h62.017    c0.152,0.002,0.303,0.006,0.379,0.006c8.158,0,16.41-5.627,16.457-18.232V184.848c0-3.672-2.971-6.646-6.639-6.652    c-13.321-0.026-24.146-0.043-29.528-0.05c20.851-42.32,56.841-115.352,63.826-129.461c8.644,16.6,58.893,112.016,68.09,129.481    C593.243,178.226,582.479,178.269,567.227,178.282z" fill="#c41a1a"/>
		<path d="M44.726,481.177c3.672,0,6.652-2.98,6.652-6.652V267.259c0-3.672-2.98-6.652-6.652-6.652s-6.652,2.98-6.652,6.652v207.264    C38.074,478.197,41.05,481.177,44.726,481.177z" fill="#c41a1a"/>
		<path d="M192.769,174.059c-3.672,0-6.652,2.98-6.652,6.652V476.8c0,3.672,2.98,6.652,6.652,6.652s6.652-2.98,6.652-6.652V180.71    C199.421,177.039,196.441,174.059,192.769,174.059z" fill="#c41a1a"/>
		<path d="M335.212,85.231c-3.672,0-6.652,2.98-6.652,6.652v378.085c0,3.672,2.98,6.652,6.652,6.652s6.652-2.98,6.652-6.652V91.883    C341.864,88.211,338.884,85.231,335.212,85.231z" fill="#c41a1a"/>
		<path d="M521.974,180.89c-3.672,0-6.652,2.98-6.652,6.652v314.313c0,3.672,2.98,6.652,6.652,6.652s6.651-2.98,6.651-6.652V187.542    C528.625,183.867,525.648,180.89,521.974,180.89z" fill="#c41a1a"/>
		<path d="M524.042,88.653l-34.165,61.495c-1.782,3.213-0.625,7.264,2.585,9.046c1.024,0.569,2.132,0.838,3.223,0.838    c2.338,0,4.606-1.234,5.82-3.419l34.165-61.494c1.782-3.213,0.625-7.264-2.585-9.047    C529.872,84.287,525.825,85.444,524.042,88.653z" fill="#c41a1a"/>
	</g>
</g>
<g>
</g>
<g>
</g>
<g>
</g>
<g>
</g>
<g>
</g>
<g>
</g>
<g>
</g>
<g>
</g>
<g>
</g>
<g>
</g>
<g>
</g>
<g>
</g>
<g>
</g>
<g>
</g>
<g>
</g>
</svg>
