<?xml version="1.0" encoding="iso-8859-1"?>
<!-- Generator: Adobe Illustrator 16.0.0, SVG Export Plug-In . SVG Version: 6.00 Build 0)  -->
<!DOCTYPE svg PUBLIC "-//W3C//DTD SVG 1.1//EN" "http://www.w3.org/Graphics/SVG/1.1/DTD/svg11.dtd">
<svg xmlns="http://www.w3.org/2000/svg" xmlns:xlink="http://www.w3.org/1999/xlink" version="1.1" id="Capa_1" x="0px" y="0px" width="512px" height="512px" viewBox="0 0 612 612" style="enable-background:new 0 0 612 612;" xml:space="preserve">
<g>
	<g>
		<path d="M32.66,291.515c-2.071,0.092-3.982,1.159-5.147,2.876C2.025,331.995,50.457,417.2,56.064,426.792    c0.906,1.553,2.413,2.666,4.166,3.08c0.496,0.117,1.001,0.174,1.504,0.174c1.267,0,2.521-0.369,3.598-1.074    c1.435-0.938,14.126-9.275,18.193-12.721c1.175-0.994,1.966-2.373,2.229-3.893c8.443-48.785-45.411-115.611-47.709-118.43    C36.734,292.319,34.784,291.43,32.66,291.515z M73.166,407.687c-2.377,1.766-5.971,4.238-9.189,6.408    c-13.551-24.848-36.229-75.289-29.512-103.133C47.98,329.634,77.171,374.386,73.166,407.687z" fill="#c41a1a"/>
		<path d="M609.549,186.208c-11.309-46.947-42.548-52.016-55.453-52.016c-3.948,0-6.522,0.473-6.802,0.529    c-0.279,0.053-0.552,0.125-0.821,0.213c-0.856,0.282-86.512,28.577-168.677,55.463c-6.333,2.078-13.962,4.376-22.671,6.832    c-0.076,0.02-0.141,0.056-0.213,0.079c-0.049,0.013-0.098,0.03-0.148,0.043c-0.075,0.02-0.147,0.02-0.223,0.039l-1.661,0.473    c-0.01,0.003-0.02,0.01-0.03,0.013c-1.96,0.44-5.576,1.037-8.634,1.543c-21.296,3.516-37.971,6.927-42.863,16.007    c-0.309,0.574-0.506,1.175-0.709,1.776c-115.281,27.119-267.505,58.89-279.225,61.332c-0.161,0.01-0.325,0.03-0.483,0.053    c-0.962,0.141-9.586,1.707-15.472,12.599c-12.888,23.865-2.951,72.119,29.529,143.465L16.889,447.13    c-1.52,1.047-2.528,2.686-2.781,4.514s0.279,3.678,1.458,5.096c0.716,0.859,17.763,21.064,37.086,21.068l0,0    c4.041,0,7.921-0.869,11.562-2.6c2.111-1.018,4.455-1.994,6.825-2.984c3.719-1.553,7.56-3.158,10.932-5.035    c9.701-3.898,185.79-74.715,226.631-95.904c2.081-0.77,6.337-2.348,12.153-4.527c-2.59,9.082-6.575,24.424-9.582,36.428    c-8.19,32.711-8.006,32.959-5.771,35.984c2.078,2.809,6.47,3.453,9.271,1.359c7.006-5.24,20.882-16.73,28.882-23.414    l16.188,28.402c1.182,2.076,3.375,3.316,5.702,3.316c0.394,0,0.794-0.035,1.191-0.107c2.744-0.506,4.872-2.691,5.298-5.453    c0.121-0.781,12.046-77.824,15.47-102.203l1.576-0.689c8.987,30.182,19.887,66.27,19.887,66.27    c0.808,2.672,3.217,4.543,6.008,4.662c2.803,0.154,5.348-1.541,6.378-4.133l12.071-30.373    c8.856,5.506,24.211,14.963,31.922,19.201c0.955,0.51,2.048,0.789,3.129,0.789l0,0c2.193,0,4.268-1.111,5.486-2.936    c2.347-3.514,2.655-3.969-15.929-48.861c-4.333-15.875-7.728-28.402-5.965-33.934c0.036-0.115,0.026-0.217,0.057-0.328    c60.898-20.652,131.029-44.364,135.009-45.519c7.307-1.894,13.138-6.566,17.33-13.89    C616.765,229.667,610.578,189.791,609.549,186.208z M303.681,359.101c-0.266,0.096-0.522,0.211-0.771,0.342    c-33.967,17.73-178.328,76.52-226.221,95.713c-0.276,0.111-0.548,0.244-0.808,0.391c-2.767,1.576-6.395,3.092-9.898,4.559    c-2.593,1.082-5.154,2.156-7.429,3.252c-1.861,0.887-3.792,1.312-5.896,1.312l0,0c-7.81,0-16.319-6.039-21.919-11.141    l16.25-11.201c2.633-1.816,3.575-5.268,2.232-8.164C7.333,343.708,10.806,310.175,16.6,298.242    c2.393-4.924,5.331-6.303,6.076-6.595c0.236-0.023,0.473-0.059,0.706-0.108c1.625-0.335,161.465-33.583,281.087-61.746    c5.288,5.604,9.888,10.905,9.891,10.905c0.314,0.397,26.348,34.312,10.219,110.594    C313.999,355.274,306.354,358.116,303.681,359.101z M456.079,375.368c-10.886-6.609-22.277-13.756-22.451-13.867    c-1.651-1.037-3.677-1.291-5.531-0.68c-1.852,0.605-3.342,2.002-4.061,3.814l-8.021,20.184    c-4.543-15.102-11.135-37.055-16.555-55.316c-0.538-1.805-1.822-3.293-3.529-4.086c-1.71-0.795-3.677-0.814-5.399-0.059    l-11.688,5.121c-2.031,0.889-3.476,2.742-3.841,4.93l-0.236,1.514c-0.071,0.486-0.144,0.965-0.259,1.648    c-2.331,16.66-8.856,59.293-12.668,84.072l-10.758-18.877c-0.965-1.693-2.633-2.871-4.553-3.213    c-0.384-0.068-0.769-0.102-1.152-0.102c-1.536,0-3.037,0.541-4.231,1.545c-0.158,0.135-10.443,8.799-20.284,16.844    c4.188-17.365,10.85-43.172,13.748-52.648c0.578-2.279,1.096-4.498,1.604-6.713c0.381-0.605,0.703-1.248,0.873-1.961    c19.342-81.21-6.539-118.335-9.553-122.304c-0.092-0.121-0.19-0.24-0.289-0.355c-4.245-4.845-8.581-9.579-12.202-13.335    c-0.02-0.02-0.269-0.46-0.289-0.483c-0.102-0.22-0.164-0.46-0.232-0.699c6.093-3.716,25.104-6.864,31.846-7.977    c5.367-0.886,8.63-1.441,10.85-2.055c8.529,1.996,51.183,14.802,74.316,74.976c0.043,0.115,0.092,0.227,0.135,0.341    c0.781,2.042,1.533,4.149,2.265,6.303c0.09,0.259,0.182,0.506,0.27,0.768c0.706,2.098,1.379,4.264,2.035,6.467    c0.092,0.309,0.189,0.597,0.278,0.906c0.732,2.501,1.432,5.069,2.095,7.708c0,0.002,0.003,0.006,0.003,0.006    c0.01,0.043,0.022,0.08,0.033,0.121c0.078,0.336,0.184,0.67,0.314,1.035c-1.907,8.58,0.991,19.973,6.431,39.895    c0.072,0.268,0.161,0.529,0.27,0.781C449.783,359.614,453.343,368.435,456.079,375.368z M592.849,245    c-2.387,4.074-5.363,6.523-9.286,7.544c-5.275,1.53-96.708,32.506-134.07,45.175c-0.085-0.299-0.177-0.581-0.263-0.877    c-0.24-0.827-0.489-1.635-0.735-2.449c-0.479-1.582-0.972-3.135-1.477-4.668c-0.543-1.648-1.101-3.26-1.669-4.852    c-0.357-0.995-0.709-1.999-1.076-2.971c-0.565-1.51-1.146-2.984-1.733-4.438c-0.003-0.01-0.007-0.016-0.01-0.026    c-17.783-44.039-45.49-64.297-64.366-73.367c1.28-0.407,2.524-0.804,3.716-1.198c78.882-25.809,160.989-52.922,168.201-55.305    c0.63-0.085,2.052-0.243,4.015-0.243c12.169,0,33.893,5.453,42.752,42.197C597.708,192.788,602.727,228.133,592.849,245z" fill="#c41a1a"/>
	</g>
</g>
<g>
</g>
<g>
</g>
<g>
</g>
<g>
</g>
<g>
</g>
<g>
</g>
<g>
</g>
<g>
</g>
<g>
</g>
<g>
</g>
<g>
</g>
<g>
</g>
<g>
</g>
<g>
</g>
<g>
</g>
</svg>
