<?xml version="1.0" encoding="iso-8859-1"?>
<!-- Generator: Adobe Illustrator 16.0.0, SVG Export Plug-In . SVG Version: 6.00 Build 0)  -->
<!DOCTYPE svg PUBLIC "-//W3C//DTD SVG 1.1//EN" "http://www.w3.org/Graphics/SVG/1.1/DTD/svg11.dtd">
<svg xmlns="http://www.w3.org/2000/svg" xmlns:xlink="http://www.w3.org/1999/xlink" version="1.1" id="Capa_1" x="0px" y="0px" width="512px" height="512px" viewBox="0 0 612 612" style="enable-background:new 0 0 612 612;" xml:space="preserve">
<g>
	<g id="meter">
		<g>
			<path d="M306,19.125c-169.008,0-306,136.992-306,306c0,113.067,61.774,211.121,153,264.04v3.71h306v-3.691     c91.227-52.938,153-150.973,153-264.059C612,156.117,474.988,19.125,306,19.125z M432.761,516.375H179.239     C117.351,475.275,76.5,404.991,76.5,325.125c0-126.741,102.759-229.5,229.5-229.5s229.5,102.759,229.5,229.5     C535.5,404.991,494.649,475.275,432.761,516.375z M403.347,195.19c-18.303-10.557-41.693-4.303-52.25,14l-44.867,77.705     c-0.077,0-0.153-0.019-0.229-0.019c-42.247,0-76.5,34.253-76.5,76.5s34.253,76.5,76.5,76.5s76.5-34.253,76.5-76.5     c0-13.789-3.939-26.546-10.327-37.715l45.153-78.221C427.902,229.137,421.63,205.747,403.347,195.19z" fill="#c41a1a"/>
		</g>
	</g>
</g>
<g>
</g>
<g>
</g>
<g>
</g>
<g>
</g>
<g>
</g>
<g>
</g>
<g>
</g>
<g>
</g>
<g>
</g>
<g>
</g>
<g>
</g>
<g>
</g>
<g>
</g>
<g>
</g>
<g>
</g>
</svg>
