<?xml version="1.0" encoding="iso-8859-1"?>
<!-- Generator: Adobe Illustrator 16.0.0, SVG Export Plug-In . SVG Version: 6.00 Build 0)  -->
<!DOCTYPE svg PUBLIC "-//W3C//DTD SVG 1.1//EN" "http://www.w3.org/Graphics/SVG/1.1/DTD/svg11.dtd">
<svg xmlns="http://www.w3.org/2000/svg" xmlns:xlink="http://www.w3.org/1999/xlink" version="1.1" id="Capa_1" x="0px" y="0px" width="512px" height="512px" viewBox="0 0 791.996 791.996" style="enable-background:new 0 0 791.996 791.996;" xml:space="preserve">
<g>
	<g>
		<path d="M688.554,314.166c0-24.247-14.725-45.542-35.877-54.918c11.545-11.151,18.424-26.703,18.424-43.223    c0-31.661-24.574-57.682-55.635-59.966c4.281-8.378,6.592-17.729,6.592-27.247c0-33.135-26.965-60.09-60.107-60.09    c-6.445,0-12.775,1.024-18.805,3.021c0-0.043,0-0.086,0-0.129c0-33.113-26.965-60.052-60.107-60.052    c-16.709,0-32.305,6.87-43.477,18.603C429.05,11.832,409.427,0,387.511,0c-26.24,0-48.871,17.266-56.932,41.042    c-10.439-8.138-23.368-12.723-36.842-12.723c-31.425,0-57.296,24.255-59.889,55.038c-5.678-1.749-11.605-2.653-17.587-2.653    c-33.13,0-60.086,26.956-60.086,60.086c0,8.463,1.804,16.786,5.211,24.427c-29.355,3.934-52.063,29.163-52.063,59.598    c0,17.579,7.868,34.138,20.892,45.409c-16.465,10.923-26.771,29.492-26.771,49.981c0,25.147,15.934,47.226,38.428,56.019    c-8.275,10.495-12.951,23.587-12.951,37.193c0,34.052,28.635,61.629,62.854,60.021l-40.802,209.455    c-0.6,3.068,0.523,6.223,2.927,8.224c2.404,2.002,5.704,2.537,8.618,1.389l108.734-42.726l84.899,62.144    c2.357,1.723,5.434,2.125,8.155,1.075c2.726-1.059,4.727-3.429,5.305-6.291l18.26-90.14l34.747,168.589    c0.586,2.85,2.58,5.202,5.287,6.257c1.004,0.39,2.057,0.583,3.107,0.583c1.779,0,3.539-0.553,5.018-1.624l87.115-62.958    l106.305,42.503c1.027,0.412,2.107,0.613,3.18,0.613c0.029,0,0.061,0,0.09,0c4.73,0,8.57-3.84,8.57-8.571    c0-1.016-0.18-1.988-0.5-2.893L587.911,501.37c1.672-5.601,2.516-11.335,2.516-17.077c0-5.704-0.789-11.288-2.326-16.641    c2.176,0.24,4.375,0.36,6.59,0.36c33.127,0,60.082-26.938,60.082-60.052c0-12.929-4.156-25.318-11.592-35.492    C669.218,365.903,688.554,342.252,688.554,314.166z M628.503,357.152c-1.324,0-2.502-0.068-3.604-0.206    c-3.93-0.484-7.676,1.753-9.09,5.447c-1.41,3.694-0.107,7.873,3.145,10.114c11.691,8.048,18.668,21.307,18.668,35.466    c0,23.66-19.264,42.91-42.939,42.91c-6.492,0-12.768-1.448-18.65-4.307c-3.334-1.616-7.551-0.755-10.012,1.864    c-0.564,0.591-1.053,1.268-1.436,2.022c-1.465,2.862-1.203,6.308,0.682,8.918c5.242,7.264,8.014,15.882,8.014,24.924    c0,4.646-0.783,9.304-2.33,13.842c-0.494,1.444-0.592,2.991-0.283,4.487l50.367,245.47l-95.908-38.347    c-2.727-1.093-5.82-0.707-8.203,1.012l-80.189,57.952l-40.536-196.693c-0.823-3.985-4.328-6.839-8.395-6.839    c-0.004,0-0.009,0-0.013,0c-4.071,0.004-7.576,2.875-8.386,6.869l-23.93,118.124l-77.9-57.022    c-2.37-1.735-5.468-2.134-8.198-1.062l-98.591,38.744l37.96-194.901c0.197-1.312,0.446-2.602,0.84-4.264l1.354-6.964    c0.565-2.91-0.412-5.901-2.584-7.92c-2.168-2.014-5.224-2.772-8.087-1.983c-3.78,1.028-7.568,1.551-11.266,1.551    c-23.677,0-42.944-19.268-42.944-42.944c0-13.786,6.732-26.844,18.003-34.926c2.918-2.091,4.221-5.777,3.27-9.239    c-0.951-3.463-3.955-5.961-7.534-6.265c-21.984-1.882-39.211-20.673-39.211-42.782c0-18.573,11.866-34.939,29.526-40.733    c3.334-1.093,5.666-4.105,5.884-7.607c0.219-3.501-1.714-6.784-4.885-8.284c-15.2-7.204-24.646-22.057-24.646-38.762    c0-23.703,19.267-42.987,42.944-42.987c1.976,0,3.977,0.154,6.115,0.467c3.514,0.51,6.994-1.2,8.725-4.303    c1.736-3.107,1.372-6.959-0.917-9.685c-6.458-7.697-10.015-17.467-10.015-27.508c0-23.681,19.268-42.944,42.944-42.944    c7.817,0,15.5,2.16,22.225,6.248c2.85,1.731,6.449,1.65,9.222-0.201c2.772-1.86,4.212-5.16,3.694-8.455    c-0.433-2.756-0.625-4.911-0.625-6.99c0-23.703,19.271-42.987,42.957-42.987c13.975,0,27.148,6.934,35.248,18.543    c2.125,3.047,5.969,4.375,9.518,3.3c3.553-1.075,6.004-4.319,6.081-8.031c0.472-23.244,19.73-42.143,42.932-42.143    c19.705,0,36.82,13.405,41.625,32.6c0.861,3.45,3.762,6.004,7.289,6.428c3.535,0.42,6.955-1.375,8.605-4.517    c7.457-14.163,22.02-22.957,38-22.957c23.693,0,42.965,19.25,42.965,42.91c0,4.183-0.635,8.425-1.881,12.616    c-1.041,3.497,0.244,7.268,3.201,9.402c2.961,2.134,6.945,2.16,9.93,0.064c7.311-5.125,15.852-7.834,24.691-7.834    c23.689,0,42.967,19.267,42.967,42.949c0,11.802-4.715,22.794-13.277,30.954c-2.592,2.473-3.377,6.291-1.967,9.582    c0.291,0.682,0.617,1.273,1.072,1.86c2.057,2.94,5.725,4.281,9.195,3.377c3.957-1.037,7.582-1.539,11.082-1.539    c23.678,0,42.941,19.285,42.941,42.987c0,16.666-9.801,31.961-24.973,38.959c-3.033,1.401-4.979,4.56-4.979,7.902    c0,4.479,3.445,8.202,7.91,8.545c22.148,1.71,39.494,20.48,39.494,42.735C671.413,337.868,652.163,357.152,628.503,357.152z" fill="#c41a1a"/>
		<path d="M396.014,137.554c-85.983,0-155.938,69.917-155.938,155.861c0,85.987,69.951,155.947,155.938,155.947    S551.96,379.407,551.96,293.415C551.96,207.471,482.005,137.554,396.014,137.554z M396.014,432.216    c-76.529,0-138.797-62.267-138.797-138.805c0-76.491,62.263-138.72,138.797-138.72c76.538,0,138.806,62.229,138.806,138.72    C534.819,369.953,472.552,432.216,396.014,432.216z" fill="#c41a1a"/>
		<path d="M177.187,198.266c-1.869-4.354-6.904-6.373-11.254-4.504c-1.47,0.63-14.485,6.54-19.023,20.082    c-2.948,8.793-1.564,18.286,4.105,28.211c1.582,2.769,4.474,4.32,7.448,4.32c1.44,0,2.901-0.364,4.242-1.131    c4.11-2.349,5.537-7.585,3.188-11.695c-3.12-5.464-4.05-10.229-2.768-14.172c2.083-6.386,9.363-9.771,9.608-9.887    C177.053,207.612,179.042,202.598,177.187,198.266z" fill="#c41a1a"/>
		<path d="M163.469,304.429c3.827-2.76,4.705-8.095,1.962-11.935c-2.751-3.857-8.108-4.744-11.956-1.993    c-1.547,1.106-15.128,11.228-15.394,26.082c-0.107,6.115,2.117,15.217,13.341,23.848c1.556,1.196,3.394,1.778,5.22,1.778    c2.571,0,5.112-1.152,6.801-3.347c2.884-3.75,2.181-9.132-1.568-12.021c-4.453-3.424-6.694-6.763-6.651-9.917    C155.292,311.594,161.347,305.98,163.469,304.429z" fill="#c41a1a"/>
		<path d="M188.453,419.163c-4.697-0.587-7.671-2.019-8.836-4.247c-2.451-4.671,0.758-13.876,2.7-17.609    c2.203-4.182,0.604-9.354-3.57-11.566c-4.187-2.22-9.376-0.622-11.588,3.565c-1.041,1.967-9.977,19.64-2.76,33.508    c2.696,5.181,8.687,11.703,21.929,13.361c0.36,0.047,0.72,0.068,1.071,0.068c4.26,0,7.95-3.171,8.494-7.508    C196.479,424.031,193.149,419.746,188.453,419.163z" fill="#c41a1a"/>
		<path d="M242.325,600.433l-25.541,9.286l24.226-124.358c0.904-4.646-2.125-9.146-6.775-10.05    c-4.654-0.921-9.145,2.13-10.049,6.775l-27.123,139.229c-0.591,3.034,0.497,6.149,2.846,8.155    c1.577,1.346,3.557,2.053,5.571,2.053c0.981,0,1.972-0.172,2.927-0.519l39.782-14.464c4.448-1.615,6.741-6.535,5.125-10.983    C251.693,601.109,246.769,598.821,242.325,600.433z" fill="#c41a1a"/>
		<path d="M480.903,687.735l-23.822,16.298l-28.053-130.372c-0.994-4.628-5.537-7.576-10.182-6.573    c-4.629,0.994-7.572,5.554-6.574,10.182l30.74,142.847c0.6,2.79,2.549,5.1,5.201,6.158c1.025,0.407,2.1,0.608,3.176,0.608    c1.701,0,3.395-0.51,4.838-1.5l34.357-23.506c3.908-2.674,4.906-8.005,2.232-11.913    C490.144,686.064,484.812,685.062,480.903,687.735z" fill="#c41a1a"/>
		<path d="M323.255,211.079c-0.729,0.553-72.377,56.255-20.3,144.98c1.594,2.722,4.461,4.234,7.401,4.234    c1.474,0,2.965-0.382,4.328-1.183c4.084-2.396,5.451-7.645,3.051-11.729c-44.222-75.347,13.392-120.742,15.882-122.649    c3.758-2.858,4.495-8.224,1.641-11.991C332.409,208.971,327.035,208.225,323.255,211.079z" fill="#c41a1a"/>
	</g>
</g>
<g>
</g>
<g>
</g>
<g>
</g>
<g>
</g>
<g>
</g>
<g>
</g>
<g>
</g>
<g>
</g>
<g>
</g>
<g>
</g>
<g>
</g>
<g>
</g>
<g>
</g>
<g>
</g>
<g>
</g>
</svg>
